<?xml version="1.0" encoding="iso-8859-1"?>
<!-- Generator: Adobe Illustrator 16.0.0, SVG Export Plug-In . SVG Version: 6.00 Build 0)  -->
<!DOCTYPE svg PUBLIC "-//W3C//DTD SVG 1.1//EN" "http://www.w3.org/Graphics/SVG/1.1/DTD/svg11.dtd">
<svg version="1.1" id="Capa_1" xmlns="http://www.w3.org/2000/svg" xmlns:xlink="http://www.w3.org/1999/xlink" x="0px" y="0px"
	 width="967.426px" height="967.425px" viewBox="0 0 967.426 967.425" style="enable-background:new 0 0 967.426 967.425;"
	 xml:space="preserve">
<g>
	<g>
		<path d="M967.426,927.889V430.843h-153.48L674.8,39.537L0,279.491L166.53,747.81l84.702-30.12v210.199H967.426z M86.852,320.778
			L633.513,126.39l18.729,52.67L105.581,373.448L86.852,320.778z M675.024,243.13l66.749,187.713H251.232v214.675l-43.415,15.438
			l-79.453-223.438L675.024,243.13z M319.231,693.51v-36.087v-36.085V498.843h344.482h101.48h72.933h61.299v361.046H319.231V693.51z
			"/>
		<polygon points="502.349,592.309 400.868,592.309 375.66,592.309 375.66,601.273 375.66,637.359 375.66,660.309 412.6,660.309 
			842.998,660.309 842.998,592.309 603.83,592.309 		"/>
		<rect x="375.66" y="705.423" width="284.348" height="68"/>
	</g>
</g>
<g>
</g>
<g>
</g>
<g>
</g>
<g>
</g>
<g>
</g>
<g>
</g>
<g>
</g>
<g>
</g>
<g>
</g>
<g>
</g>
<g>
</g>
<g>
</g>
<g>
</g>
<g>
</g>
<g>
</g>
</svg>
